<?xml version="1.0" standalone="no"?>
<!DOCTYPE svg PUBLIC "-//W3C//DTD SVG 20010904//EN"
 "http://www.w3.org/TR/2001/REC-SVG-20010904/DTD/svg10.dtd">
<svg version="1.0" xmlns="http://www.w3.org/2000/svg"
 width="800.000000pt" height="800.000000pt" viewBox="0 0 800.000000 800.000000"
 preserveAspectRatio="xMidYMid meet">
<metadata>
Created by potrace 1.11, written by Peter Selinger 2001-2013
</metadata>
<g transform="translate(0.000000,800.000000) scale(0.100000,-0.100000)"
fill="#000000" stroke="none">
<path d="M2587 7404 c-2 -2 -37 -6 -78 -9 -41 -2 -99 -7 -129 -10 -30 -2 -92
-7 -138 -11 -45 -3 -106 -7 -135 -9 -28 -2 -83 -6 -122 -10 -38 -3 -101 -7
-140 -10 -38 -3 -95 -7 -125 -10 -30 -3 -89 -7 -130 -10 -99 -7 -179 -13 -270
-21 -110 -9 -145 -12 -245 -18 -49 -3 -115 -8 -145 -10 -30 -3 -91 -8 -135
-11 -204 -14 -281 -24 -350 -42 -145 -38 -296 -162 -373 -303 -23 -42 -50
-114 -58 -155 -9 -49 -10 -223 0 -330 10 -115 14 -168 21 -270 4 -49 8 -112
10 -140 2 -27 7 -86 10 -130 3 -44 8 -103 11 -132 2 -28 7 -85 9 -125 2 -40 7
-98 9 -128 3 -30 8 -95 12 -145 3 -49 7 -108 9 -130 1 -22 6 -85 10 -140 3
-55 8 -116 10 -135 2 -19 7 -78 10 -130 3 -52 8 -115 10 -140 2 -25 7 -85 11
-135 3 -49 7 -110 9 -135 2 -25 6 -88 10 -140 3 -52 8 -108 10 -125 2 -16 7
-75 10 -130 3 -55 8 -116 10 -135 1 -19 6 -82 10 -140 3 -58 8 -123 10 -145 4
-42 10 -123 20 -260 3 -44 8 -102 10 -130 2 -27 6 -93 10 -145 4 -52 9 -115
11 -140 2 -25 7 -83 10 -130 3 -47 7 -105 9 -130 2 -25 6 -83 9 -130 3 -47 8
-107 10 -135 2 -27 7 -86 10 -130 17 -231 18 -242 32 -350 14 -108 63 -216
136 -301 44 -51 48 -55 112 -104 96 -74 238 -117 376 -114 85 2 173 8 420 29
30 2 96 7 145 11 50 3 106 7 125 9 19 2 78 7 130 10 52 4 113 8 135 11 22 2
82 6 132 9 51 4 103 8 115 11 13 2 36 7 52 9 16 3 37 10 48 16 10 6 33 7 51 3
43 -8 162 -9 272 0 50 3 115 9 145 11 30 2 93 7 140 10 47 3 117 8 155 12 124
11 150 9 151 -7 2 -47 30 -175 52 -240 50 -146 130 -270 253 -391 226 -223
450 -323 754 -336 408 -17 730 169 973 564 52 83 132 250 132 274 0 8 4 19 8
24 11 13 47 130 67 223 16 70 17 72 48 73 34 1 65 3 192 13 44 3 109 8 145 11
36 3 92 7 125 10 33 2 96 7 140 10 44 3 109 8 145 11 114 9 173 13 255 19 86
5 118 10 180 27 22 5 40 9 40 7 0 -6 121 64 155 89 112 84 215 243 233 362 18
110 21 142 20 215 0 44 -3 116 -7 160 -4 44 -9 107 -11 140 -15 208 -25 352
-30 410 -2 28 -7 91 -10 140 -4 50 -9 110 -11 135 -2 25 -6 86 -9 135 -3 50
-7 106 -10 125 -2 19 -7 82 -10 140 -3 58 -8 119 -10 135 -2 17 -7 75 -10 130
l-7 100 82 103 c110 139 570 731 595 766 11 16 25 33 30 40 6 6 50 65 99 131
92 124 132 195 159 280 15 46 20 67 33 150 12 74 12 285 -1 355 -29 161 -129
341 -238 426 -21 16 -43 34 -50 39 -22 19 -181 118 -232 144 -60 32 -168 66
-245 77 -39 6 -172 5 -205 -1 -66 -12 -150 -36 -193 -55 -47 -21 -72 -25 -72
-12 0 16 -64 107 -105 148 -117 119 -302 198 -445 189 -25 -2 -85 -6 -135 -10
-49 -3 -112 -8 -140 -10 -27 -2 -90 -6 -140 -10 -49 -4 -112 -8 -140 -10 -27
-2 -81 -6 -120 -9 -38 -3 -104 -8 -145 -11 -41 -3 -100 -7 -130 -10 -30 -3
-89 -8 -130 -10 -41 -3 -95 -7 -120 -9 -25 -3 -88 -7 -140 -11 -52 -3 -117 -7
-145 -10 -67 -6 -196 -16 -264 -20 -31 -2 -90 -7 -131 -10 -41 -4 -99 -9 -129
-11 -30 -2 -89 -6 -130 -9 -107 -9 -175 -14 -261 -20 -41 -2 -104 -7 -140 -10
-36 -3 -90 -7 -120 -9 -30 -2 -92 -7 -137 -11 -76 -6 -83 -4 -84 12 -7 132
-75 280 -168 368 -71 66 -106 95 -118 95 -7 0 -13 4 -13 8 0 5 -28 21 -62 35
-109 45 -132 49 -260 52 -59 1 -109 1 -111 -1z"/>
</g>
</svg>
